<?xml version="1.0" standalone="no"?>
<!DOCTYPE svg PUBLIC "-//W3C//DTD SVG 20010904//EN"
 "http://www.w3.org/TR/2001/REC-SVG-20010904/DTD/svg10.dtd">
<svg version="1.0" xmlns="http://www.w3.org/2000/svg"
 width="57.400000pt" height="55.200000pt" viewBox="0 0 287.000000 276.000000"
 preserveAspectRatio="xMidYMid meet">

<g transform="translate(0.000000,276.000000) scale(0.100000,-0.100000)"
fill="#000000" stroke="none">
<path d="M125 2668 c-2 -7 -3 -589 -2 -1293 l2 -1280 1340 0 1340 0 3 1293 2
1292 -1340 0 c-1064 0 -1342 -3 -1345 -12z m1966 -193 c51 -18 103 -65 130
-117 10 -21 19 -40 19 -43 0 -3 -436 -5 -970 -5 l-970 0 0 90 0 90 874 0 c762
0 879 -2 917 -15z m200 -355 c50 -14 115 -73 145 -131 l24 -49 -1001 0 -1000
0 6 23 c19 63 84 128 154 153 45 16 1614 20 1672 4z m-1530 -391 c26 -12 56
-30 67 -42 l21 -22 -56 -58 -55 -57 -30 25 c-38 32 -99 34 -128 5 -11 -11 -20
-24 -20 -29 0 -38 47 -71 100 -71 63 0 136 -54 165 -122 60 -146 -77 -305
-246 -285 -55 7 -141 41 -163 66 -14 15 -11 22 37 75 l52 59 40 -22 c47 -25
92 -27 123 -5 50 35 12 94 -61 94 -174 0 -261 214 -139 343 72 76 182 93 293
46z m1726 -353 c73 -159 133 -291 133 -293 0 -1 -33 -3 -74 -3 l-75 0 -22 40
-23 40 -129 0 -129 0 -15 -40 -16 -40 -147 0 -147 0 -55 97 c-31 54 -61 99
-67 101 -8 3 -11 -27 -11 -97 l0 -101 -75 0 -75 0 0 335 0 335 118 0 c145 0
195 -15 256 -76 110 -109 97 -287 -26 -363 l-27 -17 53 -97 52 -97 94 197 c51
109 123 258 159 331 l65 133 25 -48 c13 -26 84 -178 158 -337z m-1183 344 c61
-26 132 -93 164 -155 37 -72 43 -197 13 -276 -27 -72 -89 -142 -155 -177 -71
-37 -188 -39 -260 -3 -63 31 -118 86 -153 153 -24 47 -27 64 -28 148 0 89 2
99 34 158 40 73 104 134 164 156 62 22 166 20 221 -4z m1156 -1093 c0 -23 -58
-95 -101 -126 -22 -16 -63 -34 -90 -40 -33 -7 -320 -11 -854 -11 -895 0 -824
-6 -786 68 11 20 32 49 48 64 63 60 21 57 941 58 700 0 842 -2 842 -13z"/>
<path d="M1710 1505 l0 -85 48 0 c50 1 72 12 90 47 18 33 14 59 -14 92 -22 27
-32 31 -75 31 l-49 0 0 -85z"/>
<path d="M2271 1379 l-29 -64 55 -3 c30 -2 57 -1 60 2 3 2 -9 33 -26 67 l-31
63 -29 -65z"/>
<path d="M1111 1558 c-55 -37 -74 -71 -78 -135 -3 -47 1 -66 19 -98 85 -146
298 -87 298 82 0 105 -51 164 -149 171 -46 3 -62 0 -90 -20z"/>
</g>
</svg>
